<svg xmlns="http://www.w3.org/2000/svg" width="131.831" height="32.175" viewBox="0 0 131.831 32.175"><g transform="translate(0 1)"><path d="M13.054,26.109a12.994,12.994,0,0,1-7.3-2.229,13.093,13.093,0,0,1-4.73-5.744,13.037,13.037,0,0,1,1.2-12.38,13.093,13.093,0,0,1,5.744-4.73A13.1,13.1,0,0,1,18.031.982c.161.1.508.427.245,1.254L12.888,12.389s-.1.212-.143.335a.5.5,0,0,0,.034.437.572.572,0,0,0,.442.143H25.186v0h0a1.268,1.268,0,0,1,.451.092.655.655,0,0,1,.434.607,13.056,13.056,0,0,1-13.02,12.1Z" transform="translate(0 5.066)" fill="#bb4056"/><circle cx="1.081" cy="1.081" r="1.081" transform="translate(15.185 14.826)" fill="#bb4056"/><path d="M139,153.172a4.337,4.337,0,0,1,2.316,3.8" transform="translate(-121.542 -140.748)" fill="none" stroke="#bb4056" stroke-linecap="round" stroke-width="2"/><path d="M139,153.172a8,8,0,0,1,4.03,7.017" transform="translate(-119.768 -143.963)" fill="none" stroke="#bb4056" stroke-linecap="round" stroke-width="2"/><path d="M139,153.172a11.689,11.689,0,0,1,5.734,10.239" transform="translate(-117.753 -147.185)" fill="none" stroke="#bb4056" stroke-linecap="round" stroke-width="2"/><path d="M139,153.172a15.3,15.3,0,0,1,7.5,13.4" transform="translate(-115.923 -150.344)" fill="none" stroke="#bb4056" stroke-linecap="round" stroke-width="2"/><path d="M139,153.172a18.5,18.5,0,0,1,9.4,16.226" transform="translate(-114.26 -153.172)" fill="none" stroke="#bb4056" stroke-linecap="round" stroke-width="2"/><path d="M12.186,0V-9.2l-3.8,6.966H7.272L3.456-9.2V0H1.44V-12.78H3.6L7.83-4.968l4.23-7.812h2.16V0Zm4.662,0V-9.414h1.98V0Zm0-10.962V-13.14h1.98v2.178Zm3.744,6.246a5.132,5.132,0,0,1,.342-1.872,4.628,4.628,0,0,1,.981-1.548,4.65,4.65,0,0,1,1.539-1.053,5.054,5.054,0,0,1,2.016-.387,4.748,4.748,0,0,1,2.511.639,4.053,4.053,0,0,1,1.575,1.7l-1.926.612a2.476,2.476,0,0,0-.918-.927,2.507,2.507,0,0,0-1.278-.333,2.636,2.636,0,0,0-1.107.234,2.668,2.668,0,0,0-.891.657,3.132,3.132,0,0,0-.594,1,3.615,3.615,0,0,0-.216,1.278,3.505,3.505,0,0,0,.225,1.269,3.262,3.262,0,0,0,.612,1.017,2.818,2.818,0,0,0,.9.675,2.512,2.512,0,0,0,1.089.243,2.7,2.7,0,0,0,.72-.1,2.58,2.58,0,0,0,.657-.279,2.56,2.56,0,0,0,.522-.414,1.567,1.567,0,0,0,.333-.5l1.944.576A3.849,3.849,0,0,1,28.062-.5,4.85,4.85,0,0,1,25.47.18a4.908,4.908,0,0,1-2-.4,4.7,4.7,0,0,1-1.539-1.071,4.851,4.851,0,0,1-.99-1.557A5.016,5.016,0,0,1,20.592-4.716ZM36.558-7.7a4.429,4.429,0,0,0-2.043.531A2.8,2.8,0,0,0,33.246-5.76V0h-1.98V-9.414H33.1v2.106a4.306,4.306,0,0,1,1.269-1.557A3.078,3.078,0,0,1,36.054-9.5h.3a1.063,1.063,0,0,1,.207.018ZM41.76.18a4.891,4.891,0,0,1-2.007-.4,4.686,4.686,0,0,1-1.521-1.062,4.68,4.68,0,0,1-.972-1.557A5.154,5.154,0,0,1,36.918-4.7a5.154,5.154,0,0,1,.342-1.863,4.607,4.607,0,0,1,.981-1.557,4.79,4.79,0,0,1,1.53-1.062,4.845,4.845,0,0,1,1.989-.4,4.845,4.845,0,0,1,1.989.4,4.79,4.79,0,0,1,1.53,1.062,4.607,4.607,0,0,1,.981,1.557A5.154,5.154,0,0,1,46.6-4.7a5.154,5.154,0,0,1-.342,1.863,4.608,4.608,0,0,1-.981,1.557,4.79,4.79,0,0,1-1.53,1.062A4.845,4.845,0,0,1,41.76.18ZM38.952-4.68a3.561,3.561,0,0,0,.216,1.26,3.132,3.132,0,0,0,.594,1,2.778,2.778,0,0,0,.891.666,2.553,2.553,0,0,0,1.107.243,2.553,2.553,0,0,0,1.107-.243,2.72,2.72,0,0,0,.891-.675,3.244,3.244,0,0,0,.594-1.008,3.561,3.561,0,0,0,.216-1.26,3.583,3.583,0,0,0-.216-1.251,3.221,3.221,0,0,0-.594-1.017,2.72,2.72,0,0,0-.891-.675,2.553,2.553,0,0,0-1.107-.243,2.438,2.438,0,0,0-1.089.252,2.832,2.832,0,0,0-.891.684,3.359,3.359,0,0,0-.6,1.017A3.455,3.455,0,0,0,38.952-4.68ZM58.536-3.294a2.984,2.984,0,0,1-.315,1.386,3.151,3.151,0,0,1-.846,1.035,3.807,3.807,0,0,1-1.251.648A5.1,5.1,0,0,1,54.594,0h-6.1V-12.78H55.08a2.522,2.522,0,0,1,1.206.288,3.011,3.011,0,0,1,.918.747,3.423,3.423,0,0,1,.585,1.044A3.513,3.513,0,0,1,58-9.522a3.43,3.43,0,0,1-.477,1.755A2.912,2.912,0,0,1,56.16-6.552,3.247,3.247,0,0,1,57.9-5.373,3.374,3.374,0,0,1,58.536-3.294Zm-2.07-.378a2.135,2.135,0,0,0-.135-.756,2.158,2.158,0,0,0-.36-.63,1.688,1.688,0,0,0-.549-.432,1.548,1.548,0,0,0-.7-.162H50.508v3.906h4.086a1.786,1.786,0,0,0,.738-.153,1.889,1.889,0,0,0,.594-.414,1.921,1.921,0,0,0,.4-.612A1.949,1.949,0,0,0,56.466-3.672Zm-5.958-7.362v3.762h3.708a1.647,1.647,0,0,0,.693-.144,1.9,1.9,0,0,0,.558-.387,1.7,1.7,0,0,0,.378-.585,2.042,2.042,0,0,0,.135-.756,1.98,1.98,0,0,0-.468-1.359,1.514,1.514,0,0,0-1.188-.531ZM63.288.18a2.665,2.665,0,0,1-2.232-.963A4.593,4.593,0,0,1,60.3-3.654v-5.76h1.98V-4.05q0,2.538,1.8,2.538a2.772,2.772,0,0,0,1.6-.522,3.346,3.346,0,0,0,1.17-1.512V-9.414h1.98V-2.34a.78.78,0,0,0,.117.486.566.566,0,0,0,.423.162V0q-.306.054-.5.072T68.49.09a1.44,1.44,0,0,1-.918-.3.981.981,0,0,1-.4-.765l-.036-.936A4.2,4.2,0,0,1,65.5-.351,4.677,4.677,0,0,1,63.288.18ZM71.352,0V-9.414h1.98V0Zm0-10.962V-13.14h1.98v2.178Zm4.374-2.178h1.98V-2.718a1.172,1.172,0,0,0,.27.819.97.97,0,0,0,.756.3,1.756,1.756,0,0,0,.459-.072q.261-.072.5-.162l.288,1.548a4.607,4.607,0,0,1-1.026.315,5.558,5.558,0,0,1-1.062.117,2.174,2.174,0,0,1-1.593-.558A2.123,2.123,0,0,1,75.726-2ZM84.96.18A4.039,4.039,0,0,1,83.2-.207a4.409,4.409,0,0,1-1.4-1.053,4.879,4.879,0,0,1-.927-1.557,5.432,5.432,0,0,1-.333-1.917A5.447,5.447,0,0,1,80.847-6.6a4.931,4.931,0,0,1,.882-1.539,4.262,4.262,0,0,1,1.332-1.053,3.674,3.674,0,0,1,1.683-.387,3.645,3.645,0,0,1,2,.549,4,4,0,0,1,1.35,1.4V-13.14h1.98v10.8a.78.78,0,0,0,.117.486.566.566,0,0,0,.423.162V0q-.306.054-.495.072T89.8.09a1.5,1.5,0,0,1-.972-.306,1.082,1.082,0,0,1-.414-.792l-.036-.7A3.755,3.755,0,0,1,86.958-.324,4.019,4.019,0,0,1,84.96.18Zm.486-1.692a2.718,2.718,0,0,0,.864-.144,3.06,3.06,0,0,0,.792-.4,2.783,2.783,0,0,0,.621-.594,2.134,2.134,0,0,0,.369-.738V-5.85a2.949,2.949,0,0,0-.459-.828,3.283,3.283,0,0,0-.675-.648,3.082,3.082,0,0,0-.8-.414,2.637,2.637,0,0,0-.855-.144,2.237,2.237,0,0,0-1.089.27,2.809,2.809,0,0,0-.855.72,3.55,3.55,0,0,0-.567,1.026,3.487,3.487,0,0,0-.207,1.188,3.334,3.334,0,0,0,.225,1.224,3.2,3.2,0,0,0,.621,1.008,3.048,3.048,0,0,0,.909.684A2.477,2.477,0,0,0,85.446-1.512Z" transform="translate(41.219 22.335)" fill="#bb4056"/></g></svg>