<svg xmlns="http://www.w3.org/2000/svg" height="70" viewBox="0 0 283.655 72.789"><g transform="translate(0 2)"><g transform="translate(0)"><path d="M29.642,59.285a29.5,29.5,0,0,1-16.573-5.062A29.729,29.729,0,0,1,2.329,41.181,29.6,29.6,0,0,1,5.062,13.069,29.729,29.729,0,0,1,18.1,2.329a29.743,29.743,0,0,1,22.838-.1c.367.231,1.154.97.556,2.847L29.265,28.132s-.231.482-.325.761a1.142,1.142,0,0,0,.077.991,1.3,1.3,0,0,0,1,.325H57.189l0,.011H57.2a2.88,2.88,0,0,1,1.023.209,1.486,1.486,0,0,1,.986,1.378A29.645,29.645,0,0,1,29.642,59.285Z" transform="translate(0 11.504)" fill="#bb4056"/><circle cx="2.454" cy="2.454" r="2.454" transform="translate(34.48 33.665)" fill="#bb4056"/><path d="M139,153.172a9.849,9.849,0,0,1,5.258,8.633" transform="translate(-99.358 -124.961)" fill="none" stroke="#bb4056" stroke-linecap="round" stroke-width="4"/><path d="M139,153.172a18.171,18.171,0,0,1,9.151,15.934" transform="translate(-95.329 -132.262)" fill="none" stroke="#bb4056" stroke-linecap="round" stroke-width="4"/><path d="M139,153.172a26.541,26.541,0,0,1,13.019,23.249" transform="translate(-90.754 -139.577)" fill="none" stroke="#bb4056" stroke-linecap="round" stroke-width="4"/><path d="M139,153.172A34.732,34.732,0,0,1,156.037,183.6" transform="translate(-86.6 -146.752)" fill="none" stroke="#bb4056" stroke-linecap="round" stroke-width="4"/><path d="M139,153.172s21.352,10.644,21.352,36.843" transform="translate(-82.824 -153.172)" fill="none" stroke="#bb4056" stroke-linecap="round" stroke-width="4"/></g><path d="M27.08,0V-20.44L18.64-4.96H16.16L7.68-20.44V0H3.2V-28.4H8l9.4,17.36L26.8-28.4h4.8V0ZM37.44,0V-20.92h4.4V0Zm0-24.36V-29.2h4.4v4.84Zm8.32,13.88a11.4,11.4,0,0,1,.76-4.16,10.284,10.284,0,0,1,2.18-3.44,10.334,10.334,0,0,1,3.42-2.34,11.232,11.232,0,0,1,4.48-.86,10.552,10.552,0,0,1,5.58,1.42,9.007,9.007,0,0,1,3.5,3.78L61.4-14.72a5.5,5.5,0,0,0-2.04-2.06,5.572,5.572,0,0,0-2.84-.74,5.857,5.857,0,0,0-2.46.52,5.928,5.928,0,0,0-1.98,1.46,6.96,6.96,0,0,0-1.32,2.22,8.034,8.034,0,0,0-.48,2.84,7.79,7.79,0,0,0,.5,2.82A7.248,7.248,0,0,0,52.14-5.4a6.263,6.263,0,0,0,2,1.5,5.583,5.583,0,0,0,2.42.54,6.011,6.011,0,0,0,1.6-.22,5.733,5.733,0,0,0,1.46-.62,5.688,5.688,0,0,0,1.16-.92,3.482,3.482,0,0,0,.74-1.12l4.32,1.28A8.554,8.554,0,0,1,62.36-1.1,10.779,10.779,0,0,1,56.6.4a10.907,10.907,0,0,1-4.44-.88,10.434,10.434,0,0,1-3.42-2.38,10.78,10.78,0,0,1-2.2-3.46A11.146,11.146,0,0,1,45.76-10.48Zm35.48-6.64a9.841,9.841,0,0,0-4.54,1.18,6.217,6.217,0,0,0-2.82,3.14V0h-4.4V-20.92h4.08v4.68a9.568,9.568,0,0,1,2.82-3.46,6.84,6.84,0,0,1,3.74-1.42h.66a2.363,2.363,0,0,1,.46.04ZM92.8.4a10.869,10.869,0,0,1-4.46-.88,10.412,10.412,0,0,1-3.38-2.36A10.4,10.4,0,0,1,82.8-6.3a11.454,11.454,0,0,1-.76-4.14,11.454,11.454,0,0,1,.76-4.14,10.239,10.239,0,0,1,2.18-3.46,10.644,10.644,0,0,1,3.4-2.36,10.767,10.767,0,0,1,4.42-.88,10.767,10.767,0,0,1,4.42.88,10.644,10.644,0,0,1,3.4,2.36,10.239,10.239,0,0,1,2.18,3.46,11.454,11.454,0,0,1,.76,4.14,11.454,11.454,0,0,1-.76,4.14,10.239,10.239,0,0,1-2.18,3.46,10.644,10.644,0,0,1-3.4,2.36A10.767,10.767,0,0,1,92.8.4ZM86.56-10.4a7.914,7.914,0,0,0,.48,2.8,6.96,6.96,0,0,0,1.32,2.22A6.173,6.173,0,0,0,90.34-3.9a5.673,5.673,0,0,0,2.46.54,5.673,5.673,0,0,0,2.46-.54,6.044,6.044,0,0,0,1.98-1.5,7.209,7.209,0,0,0,1.32-2.24,7.914,7.914,0,0,0,.48-2.8,7.962,7.962,0,0,0-.48-2.78,7.158,7.158,0,0,0-1.32-2.26,6.044,6.044,0,0,0-1.98-1.5,5.673,5.673,0,0,0-2.46-.54,5.417,5.417,0,0,0-2.42.56,6.294,6.294,0,0,0-1.98,1.52,7.464,7.464,0,0,0-1.34,2.26A7.677,7.677,0,0,0,86.56-10.4Zm43.52,3.08a6.632,6.632,0,0,1-.7,3.08,7,7,0,0,1-1.88,2.3A8.461,8.461,0,0,1,124.72-.5a11.336,11.336,0,0,1-3.4.5H107.76V-28.4H122.4a5.6,5.6,0,0,1,2.68.64,6.691,6.691,0,0,1,2.04,1.66,7.608,7.608,0,0,1,1.3,2.32,7.806,7.806,0,0,1,.46,2.62,7.621,7.621,0,0,1-1.06,3.9,6.471,6.471,0,0,1-3.02,2.7,7.216,7.216,0,0,1,3.86,2.62A7.5,7.5,0,0,1,130.08-7.32Zm-4.6-.84a4.745,4.745,0,0,0-.3-1.68,4.8,4.8,0,0,0-.8-1.4,3.752,3.752,0,0,0-1.22-.96,3.439,3.439,0,0,0-1.56-.36h-9.36v8.68h9.08a3.97,3.97,0,0,0,1.64-.34,4.2,4.2,0,0,0,1.32-.92,4.269,4.269,0,0,0,.88-1.36A4.331,4.331,0,0,0,125.48-8.16ZM112.24-24.52v8.36h8.24a3.66,3.66,0,0,0,1.54-.32,4.22,4.22,0,0,0,1.24-.86,3.771,3.771,0,0,0,.84-1.3,4.538,4.538,0,0,0,.3-1.68,4.4,4.4,0,0,0-1.04-3.02,3.365,3.365,0,0,0-2.64-1.18ZM140.64.4a5.923,5.923,0,0,1-4.96-2.14Q134-3.88,134-8.12v-12.8h4.4V-9q0,5.64,4,5.64a6.16,6.16,0,0,0,3.56-1.16,7.435,7.435,0,0,0,2.6-3.36V-20.92h4.4V-5.2a1.734,1.734,0,0,0,.26,1.08,1.258,1.258,0,0,0,.94.36V0q-.68.12-1.12.16T152.2.2a3.2,3.2,0,0,1-2.04-.66,2.18,2.18,0,0,1-.88-1.7l-.08-2.08a9.335,9.335,0,0,1-3.64,3.46A10.393,10.393,0,0,1,140.64.4ZM158.56,0V-20.92h4.4V0Zm0-24.36V-29.2h4.4v4.84Zm9.72-4.84h4.4V-6.04a2.606,2.606,0,0,0,.6,1.82,2.155,2.155,0,0,0,1.68.66,3.9,3.9,0,0,0,1.02-.16q.58-.16,1.1-.36l.64,3.44a10.237,10.237,0,0,1-2.28.7,12.351,12.351,0,0,1-2.36.26,4.832,4.832,0,0,1-3.54-1.24,4.717,4.717,0,0,1-1.26-3.52ZM188.8.4a8.974,8.974,0,0,1-3.92-.86,9.8,9.8,0,0,1-3.12-2.34,10.842,10.842,0,0,1-2.06-3.46,12.071,12.071,0,0,1-.74-4.26,12.105,12.105,0,0,1,.7-4.14,10.959,10.959,0,0,1,1.96-3.42,9.471,9.471,0,0,1,2.96-2.34,8.165,8.165,0,0,1,3.74-.86,8.1,8.1,0,0,1,4.44,1.22,8.888,8.888,0,0,1,3,3.1V-29.2h4.4v24a1.734,1.734,0,0,0,.26,1.08,1.258,1.258,0,0,0,.94.36V0q-.68.12-1.1.16t-.7.04a3.324,3.324,0,0,1-2.16-.68,2.4,2.4,0,0,1-.92-1.76L196.4-3.8a8.345,8.345,0,0,1-3.16,3.08A8.93,8.93,0,0,1,188.8.4Zm1.08-3.76a6.04,6.04,0,0,0,1.92-.32,6.8,6.8,0,0,0,1.76-.88,6.185,6.185,0,0,0,1.38-1.32,4.742,4.742,0,0,0,.82-1.64V-13a6.553,6.553,0,0,0-1.02-1.84,7.3,7.3,0,0,0-1.5-1.44,6.849,6.849,0,0,0-1.78-.92,5.86,5.86,0,0,0-1.9-.32,4.971,4.971,0,0,0-2.42.6,6.242,6.242,0,0,0-1.9,1.6,7.888,7.888,0,0,0-1.26,2.28,7.749,7.749,0,0,0-.46,2.64,7.409,7.409,0,0,0,.5,2.72,7.1,7.1,0,0,0,1.38,2.24,6.773,6.773,0,0,0,2.02,1.52A5.5,5.5,0,0,0,189.88-3.36Z" transform="translate(82.295 56.215)" fill="#bb4056"/></g></svg>